<svg width="438" height="512" viewBox="0 0 438 512" fill="none" xmlns="http://www.w3.org/2000/svg">
<path fill-rule="evenodd" clip-rule="evenodd" d="M125.081 1.2C122.242 4.039 123.925 8.012 135.381 25.521C141.706 35.189 146.881 43.485 146.881 43.959C146.881 44.432 143.619 46.618 139.631 48.815C113.213 63.377 91.1757 89.007 81.9837 115.861C77.5967 128.678 74.8117 148.487 76.2887 156.363L76.9717 160H218.819C347.243 160 360.724 159.85 361.274 158.418C363.015 153.88 361.304 136.173 357.802 122.5C350.492 93.955 326.627 64.438 298.281 48.88C294.211 46.647 290.881 44.469 290.881 44.041C290.881 43.613 296.056 35.298 302.381 25.565C313.807 7.981 315.487 4.006 312.681 1.2C312.021 0.54 310.224 0 308.687 0C305.396 0 304.566 1.053 289.903 23.822L279.765 39.563L270.073 36.351C237.447 25.535 200.315 25.535 167.689 36.351L157.997 39.563L147.859 23.822C133.196 1.053 132.366 0 129.075 0C127.538 0 125.741 0.54 125.081 1.2ZM161.999 87.882C165.35 91.234 165.881 92.376 165.881 96.234C165.881 102.22 162.603 107.051 157.284 108.905C152.112 110.708 148.461 109.78 144.281 105.6C140.101 101.42 139.173 97.769 140.976 92.597C142.83 87.278 147.661 84 153.647 84C157.505 84 158.647 84.531 161.999 87.882ZM291.983 86.283C295.981 88.968 298.56 95.16 297.477 99.473C296.559 103.133 291.014 108.678 287.354 109.596C279.778 111.498 271.881 104.678 271.881 96.234C271.881 92.376 272.412 91.234 275.763 87.882C279.115 84.531 280.257 84 284.115 84C287.111 84 289.706 84.753 291.983 86.283ZM25.7837 167.041C13.2677 169.082 3.29671 178.884 0.905714 191.5C0.103714 195.728 -0.141287 218.179 0.0747131 267.5L0.380713 337.5L3.03171 343.155C8.77971 355.415 19.1447 361.448 33.3807 360.82C43.2117 360.386 49.2197 357.641 55.4097 350.756C63.1907 342.102 62.8807 345.712 62.8807 263.859C62.8807 193.467 62.8147 190.899 60.8757 185.717C55.9807 172.632 40.8547 164.583 25.7837 167.041ZM400.752 167.045C389.779 168.833 380.478 176.116 376.878 185.738C374.949 190.893 374.881 193.562 374.881 263.859C374.881 345.712 374.571 342.102 382.352 350.756C388.542 357.641 394.55 360.386 404.381 360.82C418.617 361.448 428.982 355.415 434.73 343.155L437.381 337.5L437.687 267.5C437.903 218.179 437.658 195.728 436.856 191.5C433.706 174.883 417.987 164.237 400.752 167.045ZM76.8807 277.818C76.8807 395.759 76.6097 390.556 83.2017 399.199C85.2767 401.92 88.7697 404.676 92.7637 406.743L99.0557 410H116.915H134.774L135.078 449.25L135.381 488.5L138.001 494.086C143.514 505.843 153.134 511.974 166.093 511.99C180.441 512.008 191.257 505.188 196.097 493.07C198.237 487.71 198.335 486.037 198.674 448.75L199.026 410H218.954H238.881L238.889 444.75C238.898 490.112 239.655 494.538 248.979 503.753C255.288 509.989 262.174 512.3 272.881 511.775C286.03 511.13 294.329 505.669 299.761 494.086L302.381 488.5L302.684 449.25L302.988 410H320.775H338.562L344.681 406.942C351.447 403.561 355.137 399.78 358.289 393C360.366 388.533 360.383 387.705 360.653 279.75L360.924 171H218.903H76.8807V277.818Z" fill="white"/>
</svg>
