<?xml version="1.0" encoding="utf-8"?>
<!-- Svg Vector Icons : http://www.onlinewebfonts.com/icon -->
<!DOCTYPE svg PUBLIC "-//W3C//DTD SVG 1.1//EN" "http://www.w3.org/Graphics/SVG/1.1/DTD/svg11.dtd">
<svg version="1.1" xmlns="http://www.w3.org/2000/svg" xmlns:xlink="http://www.w3.org/1999/xlink" x="0px" y="0px" viewBox="0 0 256 256" enable-background="new 0 0 256 256" xml:space="preserve">
<metadata> Svg Vector Icons : http://www.onlinewebfonts.com/icon </metadata>
<g><g><path fill="#fff" d="M193.5,135.5c0-20.4,10.9-37.9,26.4-45.2c-4.3-5.6-10.1-10.9-17.9-16.5c-10.1-7.2-32.4-8-47-4.3c-11.1,2.8-20.6,8.3-25.6,8.5c-4.6,0.2-14.4-5.9-25.6-8.5c-13.5-3.2-28.3-1.4-38.4,4.3c-29.5,16.5-34.2,33.3-34.2,68.1c0,40.1,14.5,74,47,97.9c7.1,5.2,19.9,8.3,29.9,4.3c8.6-3.5,13.1-7.8,21.4-8.5c12-1.1,17.6,2.9,23.4,6.5c5.3,3.3,17.4,5.9,23.6,2c21.9-13.6,39.2-35.8,48.3-61.4C206.8,176.9,193.5,158,193.5,135.5z M167.9,44c8.7-13.7,8.7-34.1,8.5-34c-3.6,1.2-15.8-1.6-34.2,12.8c-6.4,5-14.3,17.4-17.1,25.5c-2.1,6.2-4.2,21.3-4.3,21.3c-0.2,0,14.1-0.8,21.4-4.3C149.7,61.7,162.3,52.9,167.9,44z"/></g></g>
</svg>